<?xml version="1.0" encoding="UTF-8" ?>
<!DOCTYPE svg PUBLIC "-//W3C//DTD SVG 1.1//EN" "http://www.w3.org/Graphics/SVG/1.1/DTD/svg11.dtd">
<svg width="300pt" height="300pt" viewBox="0 0 300 300" version="1.1" xmlns="http://www.w3.org/2000/svg">
<path fill="#ffffff" d=" M 0.00 0.00 L 300.00 0.00 L 300.00 300.00 L 0.00 300.00 L 0.00 0.00 Z" />
<path fill="#faa810" d=" M 75.06 91.15 C 77.28 88.89 81.46 89.02 83.42 91.56 C 87.47 96.34 91.55 101.10 95.52 105.96 C 94.08 106.57 92.64 106.63 91.31 105.80 C 90.80 106.35 90.29 106.90 89.79 107.46 C 85.08 106.51 80.43 107.84 75.71 107.44 C 75.64 109.41 73.87 109.72 72.37 109.11 C 68.64 108.48 64.84 108.26 61.08 108.00 C 59.69 108.77 58.63 110.10 57.18 110.73 C 56.14 110.24 55.79 108.82 55.06 107.99 C 61.63 102.27 68.40 96.78 75.06 91.15 Z" />
<path fill="#6d6e70" d=" M 46.26 99.03 C 53.79 96.92 61.35 94.64 69.01 93.06 C 61.78 99.14 54.53 105.24 47.25 111.28 C 45.59 127.84 44.26 144.49 42.85 161.10 C 36.29 157.79 30.08 153.77 23.64 150.23 C 20.92 148.75 19.59 145.14 21.20 142.37 C 29.59 127.94 37.84 113.43 46.26 99.03 Z" />
<path fill="#fafffd" d=" M 77.25 96.24 C 79.89 94.65 83.19 98.44 80.51 100.47 C 77.82 103.02 74.40 98.24 77.25 96.24 Z" />
<path fill="#f5960e" d=" M 91.31 105.80 C 92.64 106.63 94.08 106.57 95.52 105.96 C 98.60 109.69 101.76 113.38 104.89 117.08 C 105.34 118.68 104.81 120.35 104.72 121.96 C 99.91 123.36 94.88 122.95 89.95 122.99 C 87.13 122.98 84.80 125.06 81.97 125.00 C 78.33 125.14 74.68 124.98 71.04 125.02 C 71.43 119.71 72.05 114.42 72.37 109.11 C 73.87 109.72 75.64 109.41 75.71 107.44 C 80.43 107.84 85.08 106.51 89.79 107.46 C 90.29 106.90 90.80 106.35 91.31 105.80 Z" />
<path fill="#f69a0e" d=" M 57.18 110.73 C 58.63 110.10 59.69 108.77 61.08 108.00 C 60.58 113.07 60.28 118.15 59.76 123.22 C 56.11 122.85 52.35 121.71 48.71 122.79 C 48.90 119.32 49.32 115.88 49.60 112.42 C 51.49 111.03 53.19 109.40 55.06 107.99 C 55.79 108.82 56.14 110.24 57.18 110.73 Z" />
<path fill="#fefffe" d=" M 61.08 108.00 C 64.84 108.26 68.64 108.48 72.37 109.11 C 72.05 114.42 71.43 119.71 71.04 125.02 C 70.59 130.35 70.09 135.67 69.63 141.00 C 69.34 144.62 68.91 148.23 68.73 151.86 C 75.93 152.40 83.10 153.17 90.30 153.68 C 90.43 153.94 90.68 154.46 90.81 154.72 C 90.42 157.71 90.19 160.71 89.97 163.71 C 78.80 162.74 67.64 161.76 56.48 160.79 C 56.96 155.95 57.24 151.10 57.76 146.26 C 58.11 142.34 58.41 138.41 58.79 134.50 C 59.13 130.74 59.43 126.98 59.76 123.22 C 60.28 118.15 60.58 113.07 61.08 108.00 Z" />
<path fill="#6d6f70" d=" M 113.40 112.51 C 117.80 109.47 124.26 113.88 123.10 119.01 C 122.70 124.00 115.75 126.08 112.37 122.66 C 109.40 119.99 109.89 114.46 113.40 112.51 Z" />
<path fill="#6c6f70" d=" M 179.38 112.43 C 184.07 109.36 190.65 114.52 188.74 119.79 C 187.80 124.24 181.41 125.90 178.31 122.70 C 175.05 120.11 175.70 114.32 179.38 112.43 Z" />
<path fill="#f28b0c" d=" M 48.71 122.79 C 52.35 121.71 56.11 122.85 59.76 123.22 C 59.43 126.98 59.13 130.74 58.79 134.50 C 56.33 134.73 53.67 134.03 51.40 135.28 C 50.19 135.97 48.84 135.16 47.60 135.06 C 47.92 130.97 48.27 126.87 48.71 122.79 Z" />
<path fill="#ef830c" d=" M 89.95 122.99 C 94.88 122.95 99.91 123.36 104.72 121.96 C 104.21 127.87 103.72 133.77 103.21 139.67 C 100.87 139.66 98.42 139.64 96.54 138.02 C 96.58 138.91 96.61 139.81 96.62 140.71 C 90.03 141.06 83.42 140.98 76.84 141.75 C 74.40 142.20 71.97 141.69 69.63 141.00 C 70.09 135.67 70.59 130.35 71.04 125.02 C 74.68 124.98 78.33 125.14 81.97 125.00 C 84.80 125.06 87.13 122.98 89.95 122.99 Z" />
<path fill="#6d6e70" d=" M 127.01 123.91 C 138.00 131.78 148.54 140.30 159.61 148.03 C 159.35 140.80 159.57 133.56 159.50 126.32 C 163.63 126.19 167.76 126.22 171.89 126.27 L 172.35 126.76 C 172.11 141.18 172.34 155.60 172.23 170.02 C 161.27 162.21 150.73 153.73 139.80 145.87 C 139.70 153.22 139.76 160.58 139.78 167.93 C 135.52 168.08 131.27 167.98 127.01 167.99 C 126.98 153.29 127.00 138.60 127.01 123.91 Z" />
<path fill="#6d6e70" d=" M 110.67 126.20 C 114.79 126.34 118.90 126.18 123.01 126.27 C 123.55 140.06 123.11 154.10 123.23 167.99 C 118.99 168.01 114.74 168.01 110.50 167.98 C 110.58 154.07 110.26 140.08 110.67 126.20 Z" />
<path fill="#6d6f70" d=" M 176.29 126.25 C 180.51 126.25 184.72 126.25 188.94 126.22 C 189.07 140.14 188.98 154.06 188.99 167.99 C 184.74 167.99 180.48 168.06 176.23 167.95 C 176.30 154.05 176.17 140.15 176.29 126.25 Z" />
<path fill="#6d6e70" d=" M 208.50 126.83 C 215.35 125.09 223.05 126.85 228.18 131.79 C 234.09 137.18 236.29 146.12 233.75 153.67 C 231.74 160.22 226.17 165.54 219.55 167.31 C 212.42 169.28 204.13 167.39 199.02 161.92 C 193.62 156.95 191.82 148.87 193.53 141.89 C 195.27 134.62 201.30 128.68 208.50 126.83 Z" />
<path fill="#ed7c0b" d=" M 51.40 135.28 C 53.67 134.03 56.33 134.73 58.79 134.50 C 58.41 138.41 58.11 142.34 57.76 146.26 C 53.83 146.74 49.99 147.75 46.35 149.31 C 46.75 144.56 47.17 139.81 47.60 135.06 C 48.84 135.16 50.19 135.97 51.40 135.28 Z" />
<path fill="#ffffff" d=" M 211.41 136.40 C 215.52 135.52 220.05 137.09 222.52 140.54 C 225.65 144.39 225.52 150.46 222.18 154.14 C 219.18 157.99 213.42 159.14 209.09 156.99 C 205.72 155.28 203.07 151.87 202.91 148.00 C 202.27 142.69 206.36 137.66 211.41 136.40 Z" />
<path fill="#e97109" d=" M 96.54 138.02 C 98.42 139.64 100.87 139.66 103.21 139.67 C 102.67 145.13 102.28 150.60 101.73 156.05 C 100.91 156.60 100.06 157.08 99.17 157.49 C 98.14 157.07 97.17 156.53 96.15 156.10 C 95.70 156.68 95.32 157.30 94.83 157.85 C 93.14 157.34 91.91 156.04 90.81 154.72 C 90.68 154.46 90.43 153.94 90.30 153.68 C 83.10 153.17 75.93 152.40 68.73 151.86 C 68.91 148.23 69.34 144.62 69.63 141.00 C 71.97 141.69 74.40 142.20 76.84 141.75 C 83.42 140.98 90.03 141.06 96.62 140.71 C 96.61 139.81 96.58 138.91 96.54 138.02 Z" />
<path fill="#e86b0a" d=" M 46.35 149.31 C 49.99 147.75 53.83 146.74 57.76 146.26 C 57.24 151.10 56.96 155.95 56.48 160.79 C 52.78 161.25 49.04 160.99 45.33 160.96 C 45.66 157.07 45.97 153.19 46.35 149.31 Z" />
<path fill="#e45c07" d=" M 90.81 154.72 C 91.91 156.04 93.14 157.34 94.83 157.85 C 95.32 157.30 95.70 156.68 96.15 156.10 C 97.17 156.53 98.14 157.07 99.17 157.49 C 100.06 157.08 100.91 156.60 101.73 156.05 C 101.44 160.02 101.08 163.98 100.69 167.94 C 100.29 170.62 97.70 172.69 94.99 172.53 C 80.02 171.16 65.04 169.96 50.07 168.55 C 46.39 168.34 44.50 164.25 45.33 160.96 C 49.04 160.99 52.78 161.25 56.48 160.79 C 67.64 161.76 78.80 162.74 89.97 163.71 C 90.19 160.71 90.42 157.71 90.81 154.72 Z" />
<path fill="#e2e2e2" d=" M 200.38 174.48 C 201.86 174.01 203.43 173.94 204.97 173.94 C 227.32 174.07 249.67 173.88 272.02 174.02 C 275.86 173.81 279.41 177.20 279.37 181.05 C 279.43 188.67 279.45 196.31 279.29 203.94 C 279.21 207.68 275.63 210.65 271.96 210.36 C 251.29 210.41 230.62 210.40 209.96 210.40 C 206.46 210.37 202.75 210.90 199.47 209.42 C 196.75 208.11 195.79 204.87 195.93 202.06 C 196.04 195.02 196.00 187.98 196.01 180.93 C 195.91 178.13 197.93 175.61 200.38 174.48 Z" />
<path fill="#6c6f70" d=" M 214.32 184.43 C 217.43 183.08 220.91 183.40 224.17 183.91 C 224.20 184.84 224.25 186.70 224.28 187.63 C 221.50 187.31 217.94 186.39 215.80 188.80 C 214.42 190.84 214.76 193.83 216.12 195.82 C 218.29 197.97 221.53 197.12 224.19 196.73 C 224.21 197.64 224.24 199.46 224.25 200.37 C 219.82 201.38 213.62 201.45 211.25 196.78 C 209.68 192.69 209.77 186.53 214.32 184.43 Z" />
<path fill="#6c6f70" d=" M 231.23 184.14 C 234.39 183.09 238.24 183.07 241.13 184.89 C 244.36 187.17 244.32 191.64 243.77 195.15 C 242.61 201.83 232.72 202.79 228.62 198.37 C 225.70 194.11 225.92 186.43 231.23 184.14 Z" />
<path fill="#6c6f70" d=" M 246.75 183.60 C 248.57 182.93 250.12 183.55 251.18 185.11 C 254.15 183.26 258.33 182.55 260.94 185.42 C 264.07 182.78 270.43 182.37 271.83 187.03 C 272.74 191.59 272.03 196.35 272.24 201.00 C 270.74 201.02 269.24 201.01 267.74 200.96 C 267.42 196.62 268.46 192.05 267.17 187.85 C 265.38 186.59 263.08 187.40 261.76 188.92 C 261.71 192.92 261.78 196.92 261.78 200.92 C 260.19 201.05 258.60 201.04 257.01 200.99 C 256.92 196.99 257.13 192.99 256.94 189.00 C 256.37 186.10 252.16 187.20 251.27 189.30 C 251.17 193.18 251.28 197.07 251.27 200.96 C 249.77 201.02 248.27 201.03 246.78 200.98 C 246.70 195.19 246.79 189.39 246.75 183.60 Z" />
<path fill="#e1e2e1" d=" M 233.38 187.51 C 238.05 184.94 241.01 191.26 239.04 194.95 C 238.29 198.22 232.56 198.18 231.88 194.87 C 231.09 192.49 231.13 189.09 233.38 187.51 Z" />
<path fill="#6e6f71" d=" M 203.05 196.78 C 204.55 196.75 206.06 196.73 207.58 196.72 C 207.86 198.14 207.88 199.58 207.65 201.03 C 206.10 201.02 204.55 201.00 203.01 200.98 C 202.96 199.58 202.98 198.18 203.05 196.78 Z" />
</svg>
